<svg width="71" height="71" viewBox="0 0 71 71" fill="none" xmlns="http://www.w3.org/2000/svg">
<g clip-path="url(#clip0_0_115)">
<path fill-rule="evenodd" clip-rule="evenodd" d="M35.3713 2.39742C27.0624 2.40173 19.0259 5.34458 12.6989 10.6998C6.37191 16.055 2.16694 23.4733 0.835893 31.6282C-0.495154 39.7832 1.13451 48.143 5.43351 55.2129C9.73251 62.2828 16.4205 67.6017 24.3016 70.2186C26.0403 70.5413 26.6952 69.4637 26.6952 68.5474C26.6952 67.6311 26.6604 64.9745 26.6488 62.0701C16.9121 64.1735 14.8547 57.9613 14.8547 57.9613C13.2667 53.9274 10.9716 52.8671 10.9716 52.8671C7.79556 50.7119 11.2092 50.7522 11.2092 50.7522C14.7272 51 16.576 54.3424 16.576 54.3424C19.6941 59.6613 24.7652 58.1227 26.759 57.2237C27.0719 54.9705 27.9819 53.4376 28.9845 52.5674C21.2067 51.6915 13.0348 48.7064 13.0348 35.3716C12.9866 31.9132 14.2773 28.5688 16.6398 26.0302C16.2804 25.1543 15.0807 21.616 16.9817 16.8099C16.9817 16.8099 19.9201 15.8764 26.6083 20.377C32.345 18.8172 38.3977 18.8172 44.1344 20.377C50.8168 15.8764 53.7494 16.8099 53.7494 16.8099C55.6561 21.6045 54.4564 25.1428 54.0971 26.0302C56.467 28.5692 57.7604 31.9195 57.7078 35.3831C57.7078 48.7468 49.5185 51.6915 41.7292 52.5502C42.981 53.6335 44.0996 55.7484 44.0996 58.9986C44.0996 63.6549 44.059 67.4006 44.059 68.5474C44.059 69.4752 44.6907 70.5586 46.4642 70.2186C54.3462 67.6014 61.0349 62.2815 65.3338 55.2105C69.6327 48.1394 71.2616 39.7783 69.929 31.6226C68.5964 23.4668 64.3894 16.0484 58.0603 10.6942C51.7312 5.33991 43.6928 2.39899 35.3829 2.39742H35.3713Z" fill="#191717"/>
<path d="M13.6252 52.3658C13.5499 52.5387 13.2717 52.5905 13.0457 52.4695C12.8196 52.3485 12.6516 52.1238 12.7327 51.9451C12.8138 51.7665 13.0862 51.7204 13.3123 51.8414C13.5383 51.9624 13.7122 52.1929 13.6252 52.3658Z" fill="#191717"/>
<path d="M15.0452 53.939C14.9252 53.9991 14.7879 54.0159 14.6568 53.9865C14.5257 53.957 14.4089 53.8832 14.3265 53.7776C14.1005 53.5356 14.0541 53.2014 14.228 53.0515C14.4019 52.9017 14.7148 52.9708 14.9409 53.2129C15.1669 53.4549 15.2191 53.7891 15.0452 53.939Z" fill="#191717"/>
<path d="M16.4246 55.9386C16.2102 56.0885 15.8451 55.9386 15.6422 55.639C15.5861 55.5852 15.5415 55.5208 15.511 55.4495C15.4806 55.3782 15.4648 55.3015 15.4648 55.2241C15.4648 55.1466 15.4806 55.0699 15.511 54.9986C15.5415 54.9274 15.5861 54.8629 15.6422 54.8092C15.8566 54.6651 16.2218 54.8092 16.4246 55.103C16.6275 55.3969 16.6333 55.7888 16.4246 55.9386Z" fill="#191717"/>
<path d="M18.2966 57.8749C18.1054 58.0881 17.7171 58.0305 17.3983 57.7423C17.0795 57.4542 17.0042 57.0623 17.1954 56.8549C17.3867 56.6474 17.775 56.705 18.1053 56.9874C18.4357 57.2698 18.4995 57.6674 18.2966 57.8749Z" fill="#191717"/>
<path d="M20.9219 59.0044C20.835 59.2752 20.4409 59.3962 20.0468 59.281C19.6527 59.1657 19.3919 58.843 19.4672 58.5664C19.5426 58.2898 19.9425 58.163 20.3424 58.2898C20.7423 58.4166 20.9973 58.722 20.9219 59.0044Z" fill="#191717"/>
<path d="M23.7851 59.2003C23.7851 59.4827 23.4606 59.7247 23.0433 59.7305C22.626 59.7362 22.2841 59.5057 22.2841 59.2233C22.2841 58.941 22.6086 58.6989 23.0259 58.6932C23.4432 58.6874 23.7851 58.9121 23.7851 59.2003Z" fill="#191717"/>
<path d="M26.4511 58.7566C26.5033 59.0389 26.2135 59.3328 25.7962 59.402C25.3789 59.4711 25.0138 59.304 24.9617 59.0274C24.9095 58.7508 25.2109 58.4511 25.6166 58.3762C26.0223 58.3013 26.399 58.4742 26.4511 58.7566Z" fill="#191717"/>
</g>
<defs>
<clipPath id="clip0_0_115">
<rect width="70" height="70" fill="white" transform="translate(0.370605 0.939087)"/>
</clipPath>
</defs>
</svg>
