<?xml version="1.0" standalone="no"?>
<svg xmlns:xlink="http://www.w3.org/1999/xlink" id="wave" style="transform:rotate(180deg); transition: 0.3s" viewBox="0 0 1440 110" version="1.1" xmlns="http://www.w3.org/2000/svg"><defs><linearGradient id="sw-gradient-0" x1="0" x2="0" y1="1" y2="0"><stop stop-color="rgba(0, 133, 255, 1)" offset="0%"/><stop stop-color="rgba(0, 194, 255, 1)" offset="100%"/></linearGradient></defs><path style="transform:translate(0, 0px); opacity:1" fill="url(#sw-gradient-0)" d="M0,77L30,67.8C60,59,120,40,180,42.2C240,44,300,66,360,69.7C420,73,480,59,540,53.2C600,48,660,51,720,44C780,37,840,18,900,23.8C960,29,1020,59,1080,60.5C1140,62,1200,37,1260,22C1320,7,1380,4,1440,1.8C1500,0,1560,0,1620,1.8C1680,4,1740,7,1800,12.8C1860,18,1920,26,1980,40.3C2040,55,2100,77,2160,73.3C2220,70,2280,40,2340,40.3C2400,40,2460,70,2520,82.5C2580,95,2640,92,2700,78.8C2760,66,2820,44,2880,29.3C2940,15,3000,7,3060,11C3120,15,3180,29,3240,36.7C3300,44,3360,44,3420,47.7C3480,51,3540,59,3600,58.7C3660,59,3720,51,3780,55C3840,59,3900,73,3960,77C4020,81,4080,73,4140,75.2C4200,77,4260,88,4290,93.5L4320,99L4320,110L4290,110C4260,110,4200,110,4140,110C4080,110,4020,110,3960,110C3900,110,3840,110,3780,110C3720,110,3660,110,3600,110C3540,110,3480,110,3420,110C3360,110,3300,110,3240,110C3180,110,3120,110,3060,110C3000,110,2940,110,2880,110C2820,110,2760,110,2700,110C2640,110,2580,110,2520,110C2460,110,2400,110,2340,110C2280,110,2220,110,2160,110C2100,110,2040,110,1980,110C1920,110,1860,110,1800,110C1740,110,1680,110,1620,110C1560,110,1500,110,1440,110C1380,110,1320,110,1260,110C1200,110,1140,110,1080,110C1020,110,960,110,900,110C840,110,780,110,720,110C660,110,600,110,540,110C480,110,420,110,360,110C300,110,240,110,180,110C120,110,60,110,30,110L0,110Z"/></svg>