<?xml version="1.0" standalone="no"?>
<svg xmlns:xlink="http://www.w3.org/1999/xlink" id="wave" style="transform:rotate(180deg); transition: 0.3s" viewBox="0 0 1440 110" version="1.1" xmlns="http://www.w3.org/2000/svg"><defs><linearGradient id="sw-gradient-0" x1="0" x2="0" y1="1" y2="0"><stop stop-color="rgba(0, 133, 255, 1)" offset="0%"/><stop stop-color="rgba(0, 194, 255, 1)" offset="100%"/></linearGradient></defs><path style="transform:translate(0, 0px); opacity:1" fill="url(#sw-gradient-0)" d="M0,44L30,53.2C60,62,120,81,180,86.2C240,92,300,84,360,73.3C420,62,480,48,540,36.7C600,26,660,18,720,27.5C780,37,840,62,900,60.5C960,59,1020,29,1080,31.2C1140,33,1200,66,1260,71.5C1320,77,1380,55,1440,49.5C1500,44,1560,55,1620,49.5C1680,44,1740,22,1800,12.8C1860,4,1920,7,1980,23.8C2040,40,2100,70,2160,73.3C2220,77,2280,55,2340,44C2400,33,2460,33,2520,29.3C2580,26,2640,18,2700,23.8C2760,29,2820,48,2880,55C2940,62,3000,59,3060,64.2C3120,70,3180,84,3240,86.2C3300,88,3360,77,3420,67.8C3480,59,3540,51,3600,49.5C3660,48,3720,51,3780,49.5C3840,48,3900,40,3960,40.3C4020,40,4080,48,4140,53.2C4200,59,4260,62,4290,64.2L4320,66L4320,110L4290,110C4260,110,4200,110,4140,110C4080,110,4020,110,3960,110C3900,110,3840,110,3780,110C3720,110,3660,110,3600,110C3540,110,3480,110,3420,110C3360,110,3300,110,3240,110C3180,110,3120,110,3060,110C3000,110,2940,110,2880,110C2820,110,2760,110,2700,110C2640,110,2580,110,2520,110C2460,110,2400,110,2340,110C2280,110,2220,110,2160,110C2100,110,2040,110,1980,110C1920,110,1860,110,1800,110C1740,110,1680,110,1620,110C1560,110,1500,110,1440,110C1380,110,1320,110,1260,110C1200,110,1140,110,1080,110C1020,110,960,110,900,110C840,110,780,110,720,110C660,110,600,110,540,110C480,110,420,110,360,110C300,110,240,110,180,110C120,110,60,110,30,110L0,110Z"/></svg>