<?xml version="1.0" standalone="no"?>
<svg xmlns:xlink="http://www.w3.org/1999/xlink" id="wave" style="transform:rotate(180deg); transition: 0.3s" viewBox="0 0 1440 180" version="1.1" xmlns="http://www.w3.org/2000/svg"><defs><linearGradient id="sw-gradient-0" x1="0" x2="0" y1="1" y2="0"><stop stop-color="rgba(0, 133, 255, 1)" offset="0%"/><stop stop-color="rgba(0, 194, 255, 1)" offset="100%"/></linearGradient></defs><path style="transform:translate(0, 0px); opacity:1" fill="url(#sw-gradient-0)" d="M0,36L34.3,30C68.6,24,137,12,206,21C274.3,30,343,60,411,69C480,78,549,66,617,63C685.7,60,754,66,823,63C891.4,60,960,48,1029,39C1097.1,30,1166,24,1234,27C1302.9,30,1371,42,1440,42C1508.6,42,1577,30,1646,30C1714.3,30,1783,42,1851,66C1920,90,1989,126,2057,123C2125.7,120,2194,78,2263,51C2331.4,24,2400,12,2469,27C2537.1,42,2606,84,2674,90C2742.9,96,2811,66,2880,60C2948.6,54,3017,72,3086,84C3154.3,96,3223,102,3291,96C3360,90,3429,72,3497,66C3565.7,60,3634,66,3703,81C3771.4,96,3840,120,3909,114C3977.1,108,4046,72,4114,75C4182.9,78,4251,120,4320,126C4388.6,132,4457,102,4526,90C4594.3,78,4663,84,4731,90C4800,96,4869,102,4903,105L4937.1,108L4937.1,180L4902.9,180C4868.6,180,4800,180,4731,180C4662.9,180,4594,180,4526,180C4457.1,180,4389,180,4320,180C4251.4,180,4183,180,4114,180C4045.7,180,3977,180,3909,180C3840,180,3771,180,3703,180C3634.3,180,3566,180,3497,180C3428.6,180,3360,180,3291,180C3222.9,180,3154,180,3086,180C3017.1,180,2949,180,2880,180C2811.4,180,2743,180,2674,180C2605.7,180,2537,180,2469,180C2400,180,2331,180,2263,180C2194.3,180,2126,180,2057,180C1988.6,180,1920,180,1851,180C1782.9,180,1714,180,1646,180C1577.1,180,1509,180,1440,180C1371.4,180,1303,180,1234,180C1165.7,180,1097,180,1029,180C960,180,891,180,823,180C754.3,180,686,180,617,180C548.6,180,480,180,411,180C342.9,180,274,180,206,180C137.1,180,69,180,34,180L0,180Z"/></svg>